<?xml version="1.0" encoding="utf-8"?>
<!-- Generator: Adobe Illustrator 26.0.1, SVG Export Plug-In . SVG Version: 6.00 Build 0)  -->
<svg version="1.1" id="Layer_1" xmlns="http://www.w3.org/2000/svg" xmlns:xlink="http://www.w3.org/1999/xlink" x="0px" y="0px"
	 viewBox="0 0 107.07 148.62" style="enable-background:new 0 0 107.07 148.62;" xml:space="preserve">
<style type="text/css">
	.st0{fill:#EDECED;}
	.st1{fill:#404041;}
	.st2{fill:url(#SVGID_1_);}
	.st3{fill:#20E0BB;}
	.st4{fill:#FF472E;}
	.st5{enable-background:new    ;}
</style>
<path class="st0" d="M94.3,104.58H12.77c-5.1,0-9.24-4.14-9.24-9.24V13.81c0-5.1,4.14-9.24,9.24-9.24H94.3
	c5.1,0,9.24,4.14,9.24,9.24v81.53C103.53,100.44,99.4,104.58,94.3,104.58z"/>
<path class="st1" d="M94.3,104.58H12.77c-5.1,0-9.24-4.14-9.24-9.24V13.81c0-5.1,4.14-9.24,9.24-9.24H94.3
	c5.1,0,9.24,4.14,9.24,9.24v81.53C103.53,100.44,99.4,104.58,94.3,104.58z"/>
<linearGradient id="SVGID_1_" gradientUnits="userSpaceOnUse" x1="88.8856" y1="59.3399" x2="18.1762" y2="130.0493" gradientTransform="matrix(1 0 0 -1 0 149.2756)">
	<stop  offset="0" style="stop-color:#9C9C9C;stop-opacity:0.8"/>
	<stop  offset="0.0211" style="stop-color:#A3A3A3;stop-opacity:0.8"/>
	<stop  offset="0.1793" style="stop-color:#D5D5D5;stop-opacity:0.8"/>
	<stop  offset="0.2994" style="stop-color:#F3F3F3;stop-opacity:0.8"/>
	<stop  offset="0.3665" style="stop-color:#FFFFFF;stop-opacity:0.8"/>
	<stop  offset="0.6014" style="stop-color:#FDFDFD;stop-opacity:0.8"/>
	<stop  offset="0.7127" style="stop-color:#F5F5F5;stop-opacity:0.8"/>
	<stop  offset="0.798" style="stop-color:#E8E8E8;stop-opacity:0.8"/>
	<stop  offset="0.8699" style="stop-color:#D6D6D6;stop-opacity:0.8"/>
	<stop  offset="0.9335" style="stop-color:#BEBEBE;stop-opacity:0.8"/>
	<stop  offset="0.9904" style="stop-color:#A1A1A1;stop-opacity:0.8"/>
	<stop  offset="1" style="stop-color:#9C9C9C;stop-opacity:0.8"/>
</linearGradient>
<path class="st2" d="M53.53,104.58L53.53,104.58c-27.61,0-50-22.39-50-50l0,0c0-27.61,22.39-50,50-50l0,0c27.61,0,50,22.39,50,50
	l0,0C103.53,82.19,81.15,104.58,53.53,104.58z"/>
<g>
	<path class="st3" d="M67.73,40.38v40.29c0,7.84-6.36,14.2-14.2,14.2s-14.26-6.36-14.26-14.2V68.84H27.44
		c-7.84,0-14.2-6.42-14.2-14.27c0-7.84,6.36-14.2,14.2-14.2h40.29V40.38z"/>
	<path class="st4" d="M93.83,54.58c0,3.92-1.56,7.5-4.19,10.07c-2.57,2.57-6.15,4.19-10.07,4.19h-40.3V28.55
		c0-7.91,6.42-14.26,14.26-14.26c3.92,0,7.5,1.62,10.07,4.19s4.12,6.08,4.12,10.07v11.83h11.83C87.47,40.38,93.83,46.73,93.83,54.58
		z"/>
</g>
<g class="st5">
	<path d="M12.92,126.5l3.61-11.12h2.71l-5.12,14.22h-2.39l-5.1-14.22h2.71L12.92,126.5z"/>
	<path d="M20.62,116.28c0-0.36,0.12-0.67,0.35-0.91s0.56-0.36,0.99-0.36s0.76,0.12,1,0.36s0.35,0.54,0.35,0.91
		c0,0.36-0.12,0.66-0.35,0.89s-0.57,0.36-1,0.36s-0.76-0.12-0.99-0.36S20.62,116.64,20.62,116.28z M23.14,129.59h-2.37v-10.57h2.37
		V129.59z"/>
	<path d="M28.7,116.46v2.57h1.87v1.76H28.7v5.9c0,0.4,0.08,0.7,0.24,0.87s0.44,0.27,0.85,0.27c0.27,0,0.55-0.03,0.83-0.1v1.84
		c-0.54,0.15-1.06,0.22-1.56,0.22c-1.82,0-2.73-1.01-2.73-3.02v-5.99h-1.74v-1.76h1.74v-2.57H28.7z"/>
	<path d="M38.69,129.59c-0.1-0.2-0.2-0.53-0.27-0.99c-0.76,0.79-1.68,1.18-2.77,1.18c-1.06,0-1.93-0.3-2.6-0.91
		s-1.01-1.35-1.01-2.25c0-1.13,0.42-1.99,1.25-2.59s2.03-0.9,3.59-0.9h1.46v-0.69c0-0.55-0.15-0.98-0.46-1.31s-0.77-0.49-1.4-0.49
		c-0.54,0-0.98,0.13-1.33,0.41s-0.52,0.61-0.52,1.03h-2.37c0-0.58,0.19-1.12,0.58-1.63s0.91-0.9,1.57-1.19s1.4-0.43,2.21-0.43
		c1.24,0,2.22,0.31,2.96,0.93s1.11,1.5,1.13,2.62v4.77c0,0.95,0.13,1.71,0.4,2.28v0.17H38.69z M36.08,127.88
		c0.47,0,0.91-0.11,1.32-0.34s0.72-0.53,0.93-0.92v-1.99h-1.28c-0.88,0-1.54,0.15-1.98,0.46s-0.66,0.74-0.66,1.3
		c0,0.46,0.15,0.82,0.45,1.09S35.57,127.88,36.08,127.88z"/>
	<path d="M54.72,129.59h-2.46v-6.31H45.9v6.31h-2.47v-14.22h2.47v5.92h6.36v-5.92h2.46V129.59z"/>
	<path d="M62.06,129.79c-1.5,0-2.72-0.47-3.66-1.42c-0.93-0.95-1.4-2.21-1.4-3.78v-0.29c0-1.05,0.2-2,0.61-2.83
		c0.41-0.83,0.98-1.48,1.71-1.94c0.74-0.46,1.56-0.69,2.46-0.69c1.44,0,2.55,0.46,3.33,1.38c0.79,0.92,1.18,2.22,1.18,3.9v0.96h-6.9
		c0.07,0.87,0.36,1.56,0.87,2.07c0.51,0.51,1.15,0.76,1.93,0.76c1.09,0,1.97-0.44,2.66-1.32l1.28,1.22
		c-0.42,0.63-0.99,1.12-1.69,1.47C63.73,129.61,62.94,129.79,62.06,129.79z M61.78,120.73c-0.65,0-1.18,0.23-1.58,0.68
		s-0.66,1.09-0.77,1.9h4.52v-0.18c-0.05-0.79-0.26-1.39-0.63-1.8S62.43,120.73,61.78,120.73z"/>
	<path d="M74.45,129.59c-0.1-0.2-0.2-0.53-0.27-0.99c-0.75,0.79-1.68,1.18-2.77,1.18c-1.06,0-1.93-0.3-2.6-0.91
		c-0.67-0.61-1.01-1.35-1.01-2.25c0-1.13,0.42-1.99,1.25-2.59c0.84-0.6,2.03-0.9,3.59-0.9h1.46v-0.69c0-0.55-0.15-0.98-0.46-1.31
		c-0.31-0.33-0.77-0.49-1.4-0.49c-0.54,0-0.98,0.13-1.33,0.41c-0.34,0.27-0.52,0.61-0.52,1.03h-2.37c0-0.58,0.19-1.12,0.58-1.63
		c0.38-0.5,0.91-0.9,1.57-1.19c0.66-0.29,1.4-0.43,2.21-0.43c1.24,0,2.22,0.31,2.96,0.93c0.74,0.62,1.11,1.5,1.13,2.62v4.77
		c0,0.95,0.13,1.71,0.4,2.28v0.17H74.45z M71.84,127.88c0.47,0,0.91-0.11,1.32-0.34c0.41-0.23,0.72-0.53,0.93-0.92v-1.99h-1.28
		c-0.88,0-1.54,0.15-1.98,0.46c-0.44,0.31-0.66,0.74-0.66,1.3c0,0.46,0.15,0.82,0.45,1.09S71.34,127.88,71.84,127.88z"/>
	<path d="M81.48,129.59h-2.37v-15h2.37V129.59z"/>
	<path d="M87.04,116.46v2.57h1.87v1.76h-1.87v5.9c0,0.4,0.08,0.7,0.24,0.87c0.16,0.18,0.44,0.27,0.85,0.27
		c0.27,0,0.55-0.03,0.83-0.1v1.84c-0.54,0.15-1.06,0.22-1.56,0.22c-1.82,0-2.73-1.01-2.73-3.02v-5.99h-1.74v-1.76h1.74v-2.57H87.04z
		"/>
	<path d="M93.05,120.18c0.78-0.9,1.75-1.35,2.94-1.35c2.25,0,3.4,1.29,3.43,3.86v6.9h-2.37v-6.82c0-0.73-0.16-1.25-0.47-1.55
		c-0.32-0.3-0.78-0.45-1.39-0.45c-0.95,0-1.66,0.42-2.13,1.27v7.55h-2.37v-15h2.37V120.18z"/>
</g>
</svg>
